<?xml version="1.0" standalone="no"?>
<!DOCTYPE svg PUBLIC "-//W3C//DTD SVG 20010904//EN"
 "http://www.w3.org/TR/2001/REC-SVG-20010904/DTD/svg10.dtd">
<svg version="1.0" xmlns="http://www.w3.org/2000/svg"
 width="896.000000pt" height="896.000000pt" viewBox="0 0 896.000000 896.000000"
 preserveAspectRatio="xMidYMid meet">
<metadata>
Created by potrace 1.14, written by Peter Selinger 2001-2017
</metadata>
<g transform="translate(0.000000,896.000000) scale(0.100000,-0.100000)"
fill="#000000" stroke="none">
<path d="M4270 8916 c-131 -46 -329 -127 -367 -152 -13 -8 -23 -11 -23 -7 0 5
-4 4 -8 -2 -4 -5 -39 -26 -78 -47 -92 -47 -273 -155 -291 -174 -8 -8 -18 -14
-23 -14 -5 0 -15 -6 -22 -13 -7 -7 -43 -34 -80 -60 -64 -45 -240 -188 -284
-232 -12 -11 -48 -45 -80 -76 -62 -59 -145 -147 -204 -216 -35 -41 -63 -75
-119 -148 -17 -22 -38 -49 -47 -60 -8 -11 -23 -32 -32 -47 -9 -16 -20 -28 -24
-28 -4 0 -8 -5 -8 -11 0 -6 -17 -36 -39 -67 -51 -75 -101 -160 -101 -171 0 -5
-4 -11 -8 -13 -11 -4 -137 -256 -175 -348 -32 -78 -49 -121 -53 -135 -22 -67
-59 -174 -66 -188 -5 -11 -7 -21 -5 -23 5 -6 202 -64 237 -71 14 -2 34 -8 45
-13 18 -8 180 -56 215 -65 8 -2 56 -15 105 -30 50 -14 97 -28 105 -30 8 -2 40
-11 70 -20 67 -20 110 -32 153 -44 17 -5 79 -23 137 -41 58 -17 110 -32 115
-34 6 -1 30 -8 55 -15 25 -8 50 -14 55 -16 43 -9 72 -19 83 -28 6 -5 12 -7 12
-4 0 3 44 -8 98 -25 53 -16 104 -31 112 -33 8 -1 56 -15 105 -30 50 -14 97
-28 105 -30 8 -2 39 -11 68 -20 28 -8 76 -22 105 -30 58 -17 55 -17 147 -43
36 -10 72 -21 80 -24 16 -7 325 -96 351 -103 9 -2 88 -24 175 -50 88 -26 164
-48 169 -49 6 -1 37 -10 70 -20 33 -10 61 -18 62 -17 2 0 21 -6 43 -14 22 -8
40 -12 40 -8 0 3 7 0 15 -7 8 -7 15 -10 15 -7 0 3 16 -1 34 -8 39 -17 53 -7
36 25 -6 11 -9 20 -6 20 3 0 -2 16 -10 35 -8 19 -14 36 -13 37 1 2 -7 30 -17
63 -10 33 -19 65 -20 70 -2 6 -17 57 -34 115 -17 58 -33 112 -35 120 -2 8 -4
15 -5 15 -1 0 -3 7 -5 15 -2 8 -22 76 -45 150 -23 74 -43 142 -45 150 -11 49
-85 298 -96 325 -5 11 -11 29 -12 40 -2 11 -6 27 -9 35 -3 8 -13 40 -21 70 -8
30 -29 100 -45 155 -63 209 -113 381 -116 395 -2 8 -13 44 -25 79 -12 35 -21
70 -21 78 0 7 -4 21 -9 31 -12 23 -193 633 -193 652 -1 8 -4 20 -8 25 -4 6
-11 26 -15 45 -4 19 -12 41 -17 48 -6 6 -8 12 -5 12 3 0 2 12 -3 28 -5 15 -23
74 -40 132 -63 215 -72 240 -78 239 -4 0 -63 -20 -132 -43z"/>
<path d="M5947 7714 c-1 -1 -60 -5 -132 -8 -171 -8 -265 -18 -390 -40 -16 -3
-46 -8 -65 -11 -29 -4 -81 -15 -100 -20 -55 -15 -61 -19 -56 -32 7 -16 42
-154 50 -193 3 -14 17 -72 31 -130 15 -58 29 -116 32 -130 8 -42 11 -55 13
-57 2 -2 3 -6 5 -10 11 -43 16 -62 19 -83 3 -14 5 -25 7 -25 1 0 3 -9 13 -60
2 -11 6 -27 9 -35 3 -8 15 -55 27 -105 12 -49 24 -97 26 -105 11 -43 23 -98
28 -120 2 -14 18 -78 35 -142 17 -65 32 -128 35 -140 2 -13 28 -117 56 -233
29 -115 53 -217 55 -225 2 -8 11 -44 20 -80 9 -36 18 -74 20 -85 2 -11 12 -50
23 -87 11 -37 17 -69 15 -72 -3 -2 0 -13 6 -24 6 -10 13 -32 15 -48 5 -28 40
-175 53 -224 4 -14 8 -29 9 -35 1 -5 3 -12 4 -15 2 -7 8 -30 14 -60 3 -14 33
-134 65 -266 33 -133 63 -253 65 -265 17 -76 44 -181 49 -185 4 -5 43 34 177
176 19 20 105 110 190 200 85 89 171 180 190 200 19 20 103 108 185 195 83 86
173 181 200 210 28 29 118 124 200 211 83 87 186 196 230 242 44 46 105 110
135 142 30 32 116 122 190 200 74 79 160 168 190 200 30 31 114 120 187 196
72 76 155 164 185 195 l54 57 -55 48 c-29 27 -61 56 -70 65 -36 35 -210 169
-219 169 -6 0 -12 3 -14 8 -5 13 -91 72 -105 72 -7 0 -13 4 -13 8 0 28 -467
271 -630 327 -3 1 -12 5 -20 8 -70 29 -320 108 -320 101 0 -3 -8 0 -17 5 -10
5 -31 12 -48 15 -16 3 -50 10 -75 16 -43 10 -66 15 -120 25 -54 11 -69 13
-120 20 -29 4 -62 9 -74 11 -31 6 -136 14 -256 20 -188 9 -211 10 -213 8z"/>
<path d="M569 6658 c-1 -5 -9 -53 -13 -80 -2 -15 -7 -31 -10 -36 -2 -4 -8 -31
-12 -58 -3 -27 -8 -58 -10 -69 -3 -11 -7 -38 -10 -60 -3 -22 -7 -53 -9 -70
-20 -133 -27 -562 -11 -710 4 -38 9 -86 11 -105 2 -19 6 -48 9 -65 4 -16 11
-57 16 -90 17 -108 21 -129 51 -245 111 -435 279 -800 536 -1161 45 -64 88
-123 95 -130 7 -8 39 -45 70 -84 31 -38 72 -87 91 -107 l33 -37 66 62 c37 34
142 134 233 222 92 88 191 183 220 210 114 109 431 413 485 465 31 30 135 129
230 220 95 91 200 192 235 225 34 33 133 128 219 210 86 83 192 184 235 225
43 41 159 152 257 247 99 95 194 186 213 202 19 17 32 34 28 37 -7 7 -224 63
-270 69 -16 2 -43 9 -60 14 -27 9 -256 65 -308 76 -14 3 -123 28 -179 42 -14
3 -29 7 -35 8 -5 2 -28 7 -50 13 -22 6 -51 13 -65 16 -14 3 -54 12 -90 21 -36
9 -72 18 -81 20 -9 2 -33 8 -53 13 -20 6 -36 8 -36 6 0 -3 -8 0 -17 5 -10 5
-31 12 -48 15 -16 3 -70 15 -120 26 -49 12 -97 23 -105 25 -8 2 -44 11 -80 20
-36 9 -76 18 -90 21 -14 3 -59 14 -100 26 -41 11 -84 21 -95 23 -11 1 -20 3
-20 5 0 1 -9 3 -20 5 -18 3 -36 7 -90 20 -11 2 -92 22 -180 43 -88 22 -203 49
-255 62 -52 12 -149 35 -215 51 -66 16 -129 31 -140 33 -11 2 -27 7 -35 10 -8
3 -26 8 -40 10 -14 3 -52 12 -86 20 -34 8 -72 17 -85 20 -42 9 -63 14 -104 25
-47 12 -105 22 -106 19z"/>
<path d="M7499 5380 c-81 -77 -395 -378 -454 -435 -29 -27 -135 -129 -235
-225 -101 -96 -206 -197 -235 -225 -29 -27 -127 -122 -220 -210 -92 -88 -200
-191 -240 -230 -102 -98 -409 -393 -475 -455 -30 -29 -142 -136 -249 -239
-107 -102 -210 -201 -229 -219 -28 -27 -33 -35 -21 -43 8 -5 23 -9 33 -9 11 0
33 -4 50 -10 27 -8 125 -33 179 -45 10 -2 26 -6 35 -9 9 -3 34 -7 55 -10 21
-4 46 -10 55 -15 9 -5 33 -11 52 -14 19 -3 42 -7 50 -11 8 -3 26 -8 40 -10 14
-3 43 -10 65 -16 22 -6 49 -12 60 -15 11 -2 31 -6 45 -10 14 -3 36 -8 50 -11
14 -3 43 -10 65 -16 52 -13 77 -19 95 -22 8 -2 33 -8 55 -14 22 -6 51 -13 65
-16 14 -2 32 -7 40 -10 8 -3 26 -8 40 -10 14 -3 35 -7 48 -10 12 -4 30 -8 40
-10 9 -2 37 -9 61 -16 25 -6 56 -13 70 -15 14 -2 26 -4 26 -5 0 -1 7 -3 15 -5
8 -2 74 -18 145 -35 137 -34 155 -38 194 -46 14 -3 28 -7 31 -9 4 -2 22 -7 41
-10 19 -3 95 -21 169 -40 74 -19 150 -37 169 -40 19 -3 37 -8 41 -10 3 -2 17
-6 31 -9 59 -12 171 -39 304 -72 33 -8 71 -17 85 -20 14 -3 43 -10 65 -16 22
-6 45 -11 50 -13 12 -2 31 -7 170 -41 61 -15 117 -28 125 -29 8 -1 33 -7 55
-13 22 -6 51 -13 65 -16 125 -27 125 -27 126 2 0 10 6 44 14 77 7 33 14 65 15
70 0 6 4 28 8 50 3 22 9 58 12 80 3 23 8 52 10 65 31 160 25 674 -11 890 -8
52 -11 71 -18 115 -3 22 -17 87 -31 145 -14 58 -27 116 -30 130 -3 14 -11 41
-17 60 -6 19 -11 37 -11 40 1 3 -5 20 -12 38 -8 17 -12 32 -9 32 2 0 -2 13
-11 29 -8 17 -17 38 -18 48 -5 21 -13 43 -35 98 -10 21 -17 42 -18 45 -1 6
-15 40 -39 95 -10 22 -19 42 -19 45 -6 23 -91 187 -100 192 -6 4 -7 8 -3 8 5
0 -1 13 -12 29 -12 16 -21 32 -21 35 0 6 -70 126 -82 141 -10 11 -108 158
-123 183 -5 10 -12 19 -15 22 -3 3 -38 47 -78 98 -71 91 -94 118 -158 189
l-32 34 -53 -51z"/>
<path d="M2929 4597 c-13 -13 -89 -93 -169 -177 -80 -84 -170 -179 -200 -210
-30 -32 -109 -115 -175 -184 -66 -70 -151 -160 -190 -201 -38 -40 -126 -132
-195 -205 -69 -72 -150 -158 -180 -189 -30 -32 -118 -124 -195 -205 -77 -81
-167 -176 -200 -211 -33 -34 -118 -124 -190 -200 -71 -75 -152 -161 -180 -190
-27 -29 -115 -121 -195 -205 -80 -83 -160 -168 -179 -187 l-33 -34 23 -27 c13
-15 31 -32 39 -38 8 -7 31 -26 50 -43 59 -53 249 -201 259 -201 5 0 11 -3 13
-7 5 -11 127 -93 138 -93 6 0 10 -4 10 -9 0 -5 8 -11 18 -14 9 -4 37 -18 62
-33 80 -48 187 -106 200 -109 3 -1 39 -17 80 -37 41 -19 100 -45 130 -58 30
-12 63 -27 74 -32 10 -5 26 -11 35 -14 9 -2 62 -19 117 -38 56 -20 113 -37
125 -40 13 -2 36 -9 50 -14 25 -10 222 -56 284 -66 85 -15 112 -19 130 -22 11
-1 20 -3 20 -4 0 -1 20 -3 45 -5 25 -3 72 -8 105 -12 77 -8 527 -8 625 0 130
12 170 18 335 49 61 11 117 21 125 23 8 1 14 7 13 11 0 5 -4 23 -6 39 -3 17
-10 45 -16 64 -6 18 -9 36 -9 40 1 3 -3 22 -10 41 -6 19 -13 46 -16 60 -6 31
-7 34 -51 215 -20 83 -39 157 -42 165 -4 8 -6 18 -5 22 1 3 -5 28 -13 55 -8
26 -16 59 -19 73 -3 14 -11 45 -17 70 -6 25 -12 52 -14 60 -1 8 -7 33 -13 55
-6 22 -13 51 -16 65 -2 14 -9 36 -14 50 -5 14 -10 27 -10 30 -1 21 -15 90 -22
110 -9 24 -18 60 -25 105 -2 11 -4 21 -5 23 -3 2 -4 7 -14 47 -4 17 -14 57
-22 90 -15 58 -19 78 -28 120 -2 11 -23 94 -46 185 -23 91 -43 173 -45 183 -3
10 -7 27 -10 37 -3 10 -8 31 -10 46 -4 27 -25 111 -61 244 -8 30 -17 64 -19
75 -2 11 -6 31 -10 45 -3 14 -8 36 -11 50 -2 14 -7 32 -10 40 -3 8 -8 26 -11
40 -5 27 -6 32 -16 70 -18 68 -88 357 -91 377 -3 12 -7 27 -10 32 -4 5 -8 22
-11 38 -9 56 -40 182 -46 188 -4 3 -17 -5 -30 -18z"/>
<path d="M3616 3183 c8 -32 18 -65 21 -73 3 -8 7 -19 8 -25 2 -5 15 -50 30
-100 58 -195 65 -221 70 -240 2 -11 29 -101 60 -200 30 -99 56 -187 58 -195 6
-28 29 -105 37 -125 8 -19 34 -114 35 -125 0 -3 4 -11 8 -17 5 -7 6 -13 2 -13
-3 0 1 -13 10 -30 9 -17 13 -30 10 -30 -3 0 1 -16 9 -35 8 -19 13 -35 11 -35
-2 0 5 -25 15 -55 10 -30 16 -55 13 -55 -3 0 -1 -6 5 -12 5 -7 13 -29 18 -48
4 -19 8 -37 9 -40 1 -3 12 -39 24 -80 13 -41 24 -79 26 -85 1 -5 5 -17 8 -25
3 -8 7 -24 10 -35 3 -11 17 -60 32 -110 15 -49 28 -97 30 -105 2 -8 10 -35 18
-60 8 -25 24 -79 36 -120 12 -41 25 -82 27 -90 3 -8 5 -16 5 -17 0 -2 4 -15 9
-30 17 -57 62 -208 64 -218 2 -5 5 -17 8 -25 11 -30 52 -165 54 -180 1 -8 28
-98 59 -200 30 -102 58 -194 60 -205 14 -63 40 -125 49 -122 6 2 67 23 136 47
69 23 143 51 164 61 22 10 43 19 48 19 32 0 473 237 490 263 4 6 8 9 8 5 0 -6
172 111 223 152 226 180 436 385 572 555 22 28 43 52 46 55 16 14 159 221 159
230 0 5 4 10 8 10 5 0 15 12 23 28 7 15 32 57 55 93 50 79 205 393 231 467 10
28 21 52 26 52 4 0 6 4 3 9 -3 5 1 22 9 37 8 16 15 36 15 44 0 9 4 20 9 25 6
6 12 21 14 35 2 14 9 36 14 50 14 33 6 50 -22 50 -13 0 -27 5 -30 10 -4 6 -12
10 -18 9 -7 -1 -19 0 -27 3 -8 3 -73 23 -145 43 -71 21 -151 44 -176 52 -25 8
-52 16 -60 17 -22 4 -102 27 -124 36 -18 7 -253 74 -265 75 -3 1 -27 8 -55 17
-65 21 -155 47 -180 53 -11 2 -58 16 -105 30 -47 15 -94 28 -105 30 -11 3 -47
13 -80 23 -33 10 -96 29 -140 42 -44 12 -87 25 -95 28 -8 3 -19 7 -25 8 -5 1
-13 3 -17 4 -5 1 -11 3 -15 4 -33 9 -105 30 -139 42 -22 7 -49 15 -60 17 -10
2 -26 6 -34 9 -23 9 -121 37 -155 44 -16 4 -34 9 -40 13 -5 3 -14 6 -20 7 -5
1 -66 18 -135 39 -69 20 -133 38 -144 40 -19 4 -151 43 -176 53 -8 3 -19 6
-25 7 -9 2 -545 158 -587 171 -15 4 -15 0 -2 -53z"/>
</g>
</svg>
