<svg width="300" height="87" viewBox="0 0 300 87" fill="none" xmlns="http://www.w3.org/2000/svg">
<g clip-path="url(#clip0_297_16)">
<path d="M91.2267 54.2021V25.3625H100.088C102.637 25.3625 104.894 25.9477 106.9 27.0762C108.907 28.2047 110.453 29.8348 111.582 31.9664C112.71 34.0562 113.253 36.4804 113.253 39.1554V40.4929C113.253 43.1678 112.71 45.5502 111.582 47.6401C110.495 49.7299 108.907 51.3599 106.9 52.4884C104.894 53.6587 102.637 54.2021 100.088 54.2439H91.2267V54.2021ZM97.2036 30.1691V49.4373H100.088C102.428 49.4373 104.184 48.685 105.438 47.1385C106.65 45.6338 107.277 43.4604 107.318 40.6183V39.0718C107.318 36.146 106.691 33.9308 105.479 32.3844C104.267 30.8797 102.47 30.1273 100.129 30.1273H97.2036V30.1691Z" fill="white"/>
<path d="M127.297 43.6274H122.574V54.2019H116.639V25.3623H127.381C130.808 25.3623 133.399 26.1146 135.28 27.6611C137.119 29.1658 138.039 31.3392 138.039 34.0978C138.039 36.0622 137.621 37.6923 136.743 39.0297C135.907 40.3254 134.611 41.4121 132.856 42.1645L139.084 53.9511V54.2437H132.689L127.297 43.6274ZM122.532 38.8208H127.339C128.844 38.8208 129.972 38.4446 130.808 37.6923C131.644 36.9399 132.02 35.895 132.02 34.5575C132.02 33.1782 131.644 32.1333 130.85 31.3392C130.097 30.5451 128.885 30.1689 127.297 30.1689H122.532V38.8208Z" fill="white"/>
<path d="M157.809 48.2668H147.401L145.437 54.2018H139.126L149.867 25.3623H155.384L166.168 54.2018H159.857L157.809 48.2668ZM148.99 43.4602H156.22L152.584 32.6767L148.99 43.4602Z" fill="white"/>
<path d="M189.49 45.8844L193.377 25.3623H199.312L192.917 54.2018H186.941L182.259 34.8919L177.536 54.2018H171.559L165.165 25.3623H171.1L174.987 45.8426L179.752 25.3623H184.767L189.49 45.8844Z" fill="white"/>
<path d="M202.907 25.7803H212.311C220.085 25.7803 225.519 31.2138 225.519 39.7403C225.519 48.225 220.252 54.2019 212.269 54.2019H202.907V25.7803ZM205.122 52.1956H211.977C219.5 52.1956 223.178 46.9293 223.178 39.9075C223.178 33.638 219.834 27.8701 211.977 27.8701H205.122V52.1956Z" fill="white"/>
<path d="M254.609 39.7821C254.609 47.5563 250.471 54.5781 241.694 54.5781C233.711 54.5781 229.03 48.1414 229.03 39.9493C229.03 31.9244 233.544 25.3206 241.987 25.3206C249.802 25.4041 254.609 31.5064 254.609 39.7821ZM231.412 39.8657C231.412 46.386 235.007 52.5718 241.861 52.5718C249.217 52.5718 252.31 46.5531 252.31 39.8239C252.31 33.2201 248.799 27.4104 241.945 27.4104C234.63 27.4104 231.412 33.4709 231.412 39.8657Z" fill="white"/>
<path d="M264.348 46.4695C264.348 52.8226 261.547 54.6198 257.786 54.6198C256.573 54.6198 256.03 54.4944 255.361 54.369V52.3628C255.947 52.4882 256.95 52.5718 257.869 52.5718C261.673 52.5718 262.174 49.6042 262.174 46.3859V25.7803H264.348V46.4695Z" fill="white"/>
<path d="M295.026 39.7821C295.026 47.5563 290.888 54.5781 282.111 54.5781C274.128 54.5781 269.447 48.1414 269.447 39.9493C269.447 31.9244 273.961 25.3206 282.404 25.3206C290.178 25.4041 295.026 31.5064 295.026 39.7821ZM271.787 39.8657C271.787 46.386 275.382 52.5718 282.237 52.5718C289.593 52.5718 292.686 46.5531 292.686 39.8239C292.686 33.2201 289.175 27.4104 282.32 27.4104C275.006 27.4104 271.787 33.4709 271.787 39.8657Z" fill="white"/>
<path d="M27.9052 24.6099C25.899 24.6099 24.3525 24.6099 22.2209 24.6099C26.9439 21.5587 29.786 17.8389 30.5802 12.4471C30.8727 13.2412 31.1653 14.0354 31.4997 14.9967C38.8559 14.9967 46.3374 14.9967 53.819 14.9967C54.028 14.0772 54.237 13.2412 54.4459 12.4471C54.6549 12.4053 54.8221 12.3635 55.0311 12.3635C55.5326 17.6299 58.0404 21.5587 62.9306 24.4845C60.9244 24.4845 59.3361 24.4845 57.4553 24.4845C57.4553 28.0372 57.4553 31.2973 57.4553 34.7246C47.4659 34.7246 37.811 34.7246 27.8634 34.7246C27.9052 31.4645 27.9052 28.1626 27.9052 24.6099ZM31.8759 27.2849C31.8759 29.1657 31.8759 30.754 31.8759 32.593C32.879 32.593 33.6731 32.593 34.509 32.593C39.3992 32.593 39.3992 32.593 38.7305 27.7028C38.7305 27.5774 38.5633 27.452 38.4379 27.2849C36.3063 27.2849 34.1329 27.2849 31.8759 27.2849ZM53.401 32.5512C53.401 30.5868 53.401 28.9985 53.401 27.3267C51.0604 27.3267 48.8452 27.3267 46.3792 27.3267C46.3792 28.7477 46.2538 30.0016 46.421 31.2555C46.4628 31.7153 47.1316 32.4676 47.5495 32.5094C49.4722 32.6348 51.3948 32.5512 53.401 32.5512Z" stroke="white" stroke-width="0.835929" stroke-miterlimit="10"/>
<path d="M20.549 48.0996C35.3867 48.0996 49.8901 48.0996 64.686 48.0996C64.686 51.8613 64.6442 55.4976 64.686 59.1757C64.686 60.2206 64.0591 61.7253 66.0653 61.8506C66.1907 61.8506 66.4415 62.5194 66.3997 62.812C66.3579 63.0627 65.9817 63.3971 65.6891 63.4807C65.1876 63.6061 64.6442 63.5225 64.1009 63.5225C49.7647 63.5225 35.4285 63.5225 21.0923 63.5225C20.549 63.5225 20.0056 63.5643 19.5041 63.4807C19.2115 63.3971 18.8353 63.0627 18.7935 62.812C18.7517 62.5194 19.0025 61.8506 19.1279 61.8506C21.1759 61.7253 20.4654 60.1788 20.5072 59.1757C20.5908 55.5394 20.549 51.9449 20.549 48.0996ZM24.1853 58.089C26.7766 58.089 29.0337 58.089 31.2489 58.089C35.1777 58.089 35.1359 58.089 34.9687 54.0765C34.927 52.739 34.3836 52.4046 33.1715 52.4464C30.7473 52.4882 28.3231 52.4046 25.9407 52.53C25.3138 52.5718 24.3107 53.1988 24.2271 53.6585C24.0181 55.0378 24.1853 56.4589 24.1853 58.089ZM60.8825 58.089C60.9243 56.7933 60.9661 55.6648 61.0497 54.5781C61.2169 52.8644 60.4646 52.3211 58.7927 52.4464C56.7447 52.5718 54.6967 52.6136 52.6904 52.4464C50.6424 52.2793 49.8901 53.0316 50.2244 54.996C50.308 55.5812 50.0573 56.2917 50.308 56.7933C50.5588 57.3366 51.1858 58.0472 51.6455 58.0472C54.6549 58.1726 57.6642 58.089 60.8825 58.089ZM45.9194 63.3553C45.9194 61.5999 46.0448 55.2886 45.8776 53.6585C45.6686 51.8613 44.4565 50.8164 42.6593 50.7746C40.862 50.7328 39.5664 51.7359 39.3574 53.4914C39.1484 55.1632 39.3156 61.5581 39.3156 63.3135C41.6144 63.3553 43.6624 63.3553 45.9194 63.3553Z" stroke="white" stroke-width="0.835929" stroke-miterlimit="10"/>
<path d="M67.0266 45.55C50.726 45.55 34.4672 45.55 17.4142 45.55C21.4267 43.6692 23.8091 40.9942 25.6481 37.7759C25.8571 37.3997 26.6513 37.2325 27.1946 37.2325C37.4765 37.1907 47.7167 37.1907 57.9986 37.2743C58.6255 37.2743 59.5033 37.8177 59.8794 38.361C61.7603 41.2868 63.8919 43.7946 67.0266 45.55Z" stroke="white" stroke-width="0.835929" stroke-miterlimit="10"/>
<path d="M13.151 45.926H71.1645" stroke="white" stroke-width="0.417964" stroke-miterlimit="10"/>
<path d="M42.6593 11.1515V67.5349" stroke="white" stroke-width="0.208982" stroke-miterlimit="10"/>
<path d="M28.1142 23.3561V67.5349" stroke="white" stroke-width="0.208982" stroke-miterlimit="10"/>
<path d="M57.5389 23.3561V67.5349" stroke="white" stroke-width="0.208982" stroke-miterlimit="10"/>
<path d="M91.3522 20.7646V57.6709" stroke="white" stroke-width="0.208982" stroke-miterlimit="10"/>
<path d="M295.235 20.7646V57.6709" stroke="white" stroke-width="0.208982" stroke-miterlimit="10"/>
<path d="M202.656 20.7646V57.6709" stroke="white" stroke-width="0.208982" stroke-miterlimit="10"/>
<path d="M199.521 20.7646V57.6709" stroke="white" stroke-width="0.208982" stroke-miterlimit="10"/>
<path d="M8.97137 64.024H75.8457" stroke="white" stroke-width="0.417964" stroke-miterlimit="10"/>
<path d="M15.7424 61.7252H69.5762" stroke="white" stroke-width="0.208982" stroke-miterlimit="10"/>
<path d="M23.9345 37.7758H61.8857" stroke="white" stroke-width="0.417964" stroke-miterlimit="10"/>
<path d="M24.4779 35.0591H60.8408" stroke="white" stroke-width="0.417964" stroke-miterlimit="10"/>
<path d="M19.2533 24.6099H66.0653" stroke="white" stroke-width="0.417964" stroke-miterlimit="10"/>
<path d="M26.4005 15.0385H58.542" stroke="white" stroke-width="0.417964" stroke-miterlimit="10"/>
<path d="M25.8571 23.3561H60.0884" stroke="white" stroke-width="0.208982" stroke-miterlimit="10"/>
<path d="M25.8571 22.311H60.0884" stroke="white" stroke-width="0.208982" stroke-miterlimit="10"/>
<path d="M25.8571 21.2662H60.0884" stroke="white" stroke-width="0.208982" stroke-miterlimit="10"/>
<path d="M25.8571 20.2212H58.5419" stroke="white" stroke-width="0.208982" stroke-miterlimit="10"/>
<path d="M27.947 19.1764H57.9986" stroke="white" stroke-width="0.208982" stroke-miterlimit="10"/>
<path d="M27.4454 18.1315H56.4522" stroke="white" stroke-width="0.208982" stroke-miterlimit="10"/>
<path d="M28.4904 17.1283H56.4522" stroke="white" stroke-width="0.208982" stroke-miterlimit="10"/>
<path d="M28.9919 16.0835H56.4521" stroke="white" stroke-width="0.208982" stroke-miterlimit="10"/>
<path d="M19.2115 44.6722H65.4801" stroke="white" stroke-width="0.208982" stroke-miterlimit="10"/>
<path d="M20.7579 43.6273H63.9337" stroke="white" stroke-width="0.208982" stroke-miterlimit="10"/>
<path d="M21.8029 42.5825H63.4321" stroke="white" stroke-width="0.208982" stroke-miterlimit="10"/>
<path d="M22.3463 41.5374H61.5095" stroke="white" stroke-width="0.208982" stroke-miterlimit="10"/>
<path d="M24.3525 40.5344H60.8826" stroke="white" stroke-width="0.208982" stroke-miterlimit="10"/>
<path d="M23.7255 39.4896H59.0017" stroke="white" stroke-width="0.208982" stroke-miterlimit="10"/>
<path d="M24.9794 38.4447H59.0017" stroke="white" stroke-width="0.208982" stroke-miterlimit="10"/>
<path d="M25.6064 37.3997H59.0017" stroke="white" stroke-width="0.208982" stroke-miterlimit="10"/>
<path d="M89.6385 54.0764H299.707" stroke="white" stroke-width="0.208982" stroke-miterlimit="10"/>
<path d="M89.9311 25.1533H300" stroke="white" stroke-width="0.208982" stroke-miterlimit="10"/>
<path d="M89.9311 40.2H300" stroke="white" stroke-width="0.208982" stroke-miterlimit="10"/>
<path d="M42.4921 81.9546C64.3984 81.9546 82.1569 64.1961 82.1569 42.2898C82.1569 20.3835 64.3984 2.625 42.4921 2.625C20.5858 2.625 2.82727 20.3835 2.82727 42.2898C2.82727 64.1961 20.5858 81.9546 42.4921 81.9546Z" stroke="white" stroke-width="0.208982" stroke-miterlimit="10"/>
</g>
<defs>
<clipPath id="clip0_297_16">
<rect width="300" height="86.25" fill="white"/>
</clipPath>
</defs>
</svg>
