<?xml version="1.0" encoding="utf-8"?>
<!-- Generator: Adobe Illustrator 28.3.0, SVG Export Plug-In . SVG Version: 6.00 Build 0)  -->
<svg version="1.1" id="Layer_1" xmlns="http://www.w3.org/2000/svg" xmlns:xlink="http://www.w3.org/1999/xlink" x="0px" y="0px"
	 viewBox="0 0 834 439" style="enable-background:new 0 0 834 439;" xml:space="preserve">
<style type="text/css">
	.st0{fill:#FFFFFF;}
	.st1{fill:#231F20;}
</style>
<path class="st0" d="M114.4,164l0.8-39.6l-3-50.8L78.4,150l-5.6,0.6l-39.4-77l-2.2,51l1.4,39.4H12.8l4.8-39.6l2.2-42l-1.4-38.8
	l20.8-0.8L42.8,56l33.6,69.4L106.6,53l2.2-9.6l21.2-0.8l-1.4,40l2.2,42l4.8,39.4H114.4z M189,164l2.8-39.6v-8.8l-40.4-72.2l26.4-1.8
	l4.8,19.6L200.8,98L218,63l4.8-20h23.6l-37.8,68.6v13l2.8,39.4H189z M258.5,160.6l6.8-20.2c7.7,5.1,14,8.5,18.8,10.4
	c4.9,1.9,10,2.8,15.2,2.8c8.8,0,15.7-2.7,20.8-8c0.4-2,0.6-4.1,0.6-6.2c0-6.3-2.1-11.5-6.4-15.8c-4.1-4.3-9.2-7.7-15.2-10.2
	c-5.9-2.5-11.8-5.2-17.8-8c-6-2.8-11.1-6.8-15.4-12c-4.1-5.2-6.2-11.7-6.2-19.4c0-10,4.1-18.1,12.4-24.2c8.4-6.1,19.4-9.2,33-9.2
	c9.5,0,18.3,1.9,26.6,5.6L325.9,65c-11.2-7.5-20.5-11.2-27.8-11.2c-7.2,0-14.5,2.3-21.8,6.8c0,7.9,2.1,14.3,6.2,19.4
	c4.1,4.9,9.2,8.7,15.2,11.4s11.9,5.3,17.8,8c6,2.7,11.1,6.5,15.2,11.6c4.1,4.9,6.2,11.3,6.2,19.2c0,10.7-4.3,19.5-13,26.4
	c-8.5,6.9-18.9,10.4-31,10.4S269.3,164.9,258.5,160.6z M351.9,58.2l1-15.2h69l21.8-2.4l-2,17.6L419.5,57h-13l-1.8,25.6v42l2.8,39.4
	h-22.4l2.8-39.6v-42l-2-25.4h-12L351.9,58.2z M460.9,164l2.8-39.6v-42L460.9,43h22.4l-2.8,39.6v42l2.8,39.4H460.9z M569.6,167
	c-18.1,0-32.4-5.5-42.8-16.4c-10.3-10.9-15.4-26.1-15.4-45.6c0-19.5,5.9-35.1,17.8-47c11.9-12,27.7-18,47.4-18c10.1,0,20.6,2,31.4,6
	l-6.4,21l-24.4-13.2c-17.1,0-28.9,3.6-35.6,10.8c-6.7,7.2-10,19.3-10,36.4c0,16.9,3.5,30,10.4,39.2c7.1,9.1,16.2,13.6,27.4,13.6
	s22.3-4.5,33.2-13.6l6.4,17.4C597,163.9,583.9,167,569.6,167z M620.9,164.2l42.6-107l3.8-13.8l15.8-1.2l44,121.8h-23.4l-6-30.2
	h-49.4l-7.2,30.4H620.9z M674.1,62.6l-20.2,57.2h39.2L674.1,62.6z M745.1,165.2l2.8-40.8v-42L745.1,43h22.4l-2.8,39.6v42l1.8,25.4
	h21.4l21.8-2.4l-2,17.6l-21.8-1.2h-19L745.1,165.2z"/>
<g>
	<line class="st1" x1="203.8" y1="402" x2="203.8" y2="189.2"/>
	<path class="st0" d="M203.2,402c-1.8-34.3-3.2-72-4.2-106.4c-0.5-17.7-2.1-35.5-1.2-53.2c0.8-17.8,2.1-35.6,5.4-53.2
		c0,0,1.2,0,1.2,0c1.7,8.9,2.8,17.7,3.6,26.6c1.6,17.7,2.5,35.5,1.7,53.2c-0.4,8.9-0.9,17.7-1.1,26.6c-0.4,13.3-1.3,40-1.8,53.2
		c-0.7,17.7-1.5,35.5-2.4,53.2C204.4,402,203.2,402,203.2,402L203.2,402z"/>
</g>
<g>
	<line class="st1" x1="359.6" y1="197.9" x2="298.5" y2="379.5"/>
	<path class="st0" d="M360.2,198.1c-8.2,29.8-17.6,62.4-26.6,92.1c-4.6,15.3-8.2,30.9-14.2,45.8c-5.9,15-12.2,29.7-20.4,43.7
		c0,0-1.1-0.4-1.1-0.4c0.9-8.1,2.5-16,4.2-23.9c3.6-15.6,7.8-31,13.7-45.9c2.9-7.4,5.9-14.9,8.7-22.3c4.2-11.2,12.7-33.7,17-44.8
		c5.8-14.9,11.6-29.8,17.6-44.6C359.1,197.7,360.2,198.1,360.2,198.1L360.2,198.1z"/>
</g>
<g>
	<line class="st1" x1="359.6" y1="197.9" x2="420.8" y2="379.5"/>
	<path class="st0" d="M360.2,197.7c11.5,28.7,23.7,60.4,34.6,89.5c5.6,15,12.1,29.6,16.4,45c4.4,15.5,8.3,31,10.2,47.1
		c0,0-1.1,0.4-1.1,0.4c-4.2-7-7.7-14.2-11.1-21.5c-6.6-14.6-12.6-29.4-16.9-44.9c-2.2-7.7-4.3-15.4-6.6-23.1
		c-3.5-11.4-10.3-34.5-13.6-46c-4.4-15.4-8.8-30.7-13-46.2C359.1,198.1,360.2,197.7,360.2,197.7L360.2,197.7z"/>
</g>
<g>
	<line class="st1" x1="303.3" y1="285" x2="416" y2="285"/>
	<path class="st0" d="M303.3,284.4c18.2-1.8,38.1-3.2,56.4-4.2c4.7-0.2,9.4-0.8,14.1-1.1c9.4-0.8,18.8,0.1,28.2,1.7
		c4.7,0.9,9.4,1.9,14.1,3.6v1.2c-9.2,3.3-18.6,4.6-28.2,5.4c-9.4,0.9-18.8-0.7-28.2-1.2c-7-0.4-21.2-1.3-28.2-1.8
		c-9.4-0.7-18.8-1.5-28.2-2.4V284.4L303.3,284.4z"/>
</g>
<g>
	<line class="st1" x1="418" y1="196.9" x2="530.7" y2="196.9"/>
	<path class="st0" d="M418,196.3c18.2-1.8,38.1-3.2,56.4-4.2c4.7-0.2,9.4-0.8,14.1-1.1c9.4-0.8,18.8,0.1,28.2,1.7
		c4.7,0.9,9.4,1.9,14.1,3.6v1.2c-9.2,3.3-18.6,4.6-28.2,5.4c-9.4,0.9-18.8-0.7-28.2-1.2c-7-0.4-21.2-1.3-28.2-1.8
		c-9.4-0.7-18.8-1.5-28.2-2.4V196.3L418,196.3z"/>
</g>
<g>
	<line class="st1" x1="471.5" y1="380.8" x2="471.5" y2="189.2"/>
	<path class="st0" d="M470.9,380.8c-1.8-30.9-3.2-64.8-4.2-95.8c-0.5-16-2.1-31.9-1.2-47.9c0.8-16.1,2.1-32.1,5.4-47.9
		c0,0,1.2,0,1.2,0c1.7,8,2.8,16,3.6,24c1.6,15.9,2.5,31.9,1.7,47.9c-0.4,8-0.9,16-1.1,24c-0.4,11.9-1.3,36-1.8,47.9
		c-0.7,16-1.5,31.9-2.4,47.9C472.1,380.8,470.9,380.8,470.9,380.8L470.9,380.8z"/>
</g>
<g>
	<line class="st1" x1="627.5" y1="412" x2="627.5" y2="192.9"/>
	<path class="st0" d="M626.9,412c-1.8-35.3-3.2-74.1-4.2-109.6c-0.5-18.3-2.1-36.5-1.2-54.8c0.8-18.4,2.1-36.6,5.4-54.8
		c0,0,1.2,0,1.2,0c1.7,9.1,2.8,18.3,3.6,27.4c1.6,18.2,2.5,36.5,1.7,54.8c-0.4,9.1-0.9,18.3-1.1,27.4c-0.4,13.6-1.3,41.1-1.8,54.8
		c-0.7,18.3-1.5,36.5-2.4,54.8C628.1,412,626.9,412,626.9,412L626.9,412z"/>
</g>
<g>
	<line class="st1" x1="535.4" y1="285.3" x2="648.1" y2="285.3"/>
	<path class="st0" d="M535.4,284.7c18.2-1.8,38.1-3.2,56.4-4.2c4.7-0.2,9.4-0.8,14.1-1.1c9.4-0.8,18.8,0.1,28.2,1.7
		c4.7,0.9,9.4,1.9,14.1,3.6c0,0,0,1.2,0,1.2c-9.2,3.3-18.6,4.6-28.2,5.4c-9.4,0.9-18.8-0.7-28.2-1.2c-7-0.4-21.2-1.3-28.2-1.8
		c-9.4-0.7-18.8-1.5-28.2-2.4V284.7L535.4,284.7z"/>
</g>
<g>
	<line class="st1" x1="555.5" y1="382.7" x2="555.5" y2="191"/>
	<path class="st0" d="M554.9,382.7c-1.8-30.9-3.2-64.8-4.2-95.8c-0.5-16-2.1-31.9-1.2-47.9c0.8-16.1,2.1-32.1,5.4-47.9
		c0,0,1.2,0,1.2,0c1.7,8,2.8,16,3.6,24c1.6,15.9,2.5,31.9,1.7,47.9c-0.4,8-0.9,16-1.1,24c-0.4,11.9-1.3,36-1.8,47.9
		c-0.7,16-1.5,31.9-2.4,47.9C556.1,382.7,554.9,382.7,554.9,382.7L554.9,382.7z"/>
</g>
<g>
	<path class="st0" d="M192.1,277.4c19.7,23.2,56.3,22.8,74.3-2c8.2-11,10.8-25.6,6.9-38.7c-6.6-21.5-29-35.9-51.4-33.3
		c-9.1,0.9-18.2,4.5-26.3,10.4l-0.9-0.8c12.1-18,37.9-24.4,58-16c33.8,13.4,42.4,58.5,18.6,84.9c-13.7,15.6-36.6,21.7-56.1,14.6
		c-9.7-3.5-18.2-9.9-24.1-18.3C191.1,278.1,192.1,277.4,192.1,277.4L192.1,277.4z"/>
</g>
</svg>
