<svg width="100" height="112" viewBox="0 0 100 112" fill="none" xmlns="http://www.w3.org/2000/svg">
<path d="M49.1119 0C42.5618 1.90207 36.4273 5.50465 31.2754 10.644C26.1234 15.7834 22.609 21.9934 20.6313 28.4806L61.0282 40.2457L49.1119 0Z" fill="#52FF31"/>
<path d="M1.16984 28.709C-0.455106 35.3347 -0.417321 42.4517 1.47215 49.4805C3.36162 56.5094 6.96421 62.669 11.5997 67.6194L41.9824 38.5216L1.16984 28.709Z" fill="#52FF31"/>
<path d="M2.06396 84.5717C6.98918 89.2954 13.174 92.8098 20.2029 94.6993C27.2317 96.5887 34.3739 96.5383 40.9744 95.0016L30.9728 54.1387L2.06396 84.5717Z" fill="#52FF31"/>
<path d="M50.9006 111.73C57.4508 109.828 63.5853 106.225 68.7372 101.086C73.8892 95.9341 77.4036 89.7366 79.3812 83.2495L38.9844 71.4844L50.9006 111.73Z" fill="#52FF31"/>
<path d="M98.8301 83.0237C100.455 76.398 100.417 69.281 98.5278 62.2522C96.6383 55.2234 93.0357 49.0637 88.4002 44.1133L58.0176 73.2111L98.8301 83.0237Z" fill="#52FF31"/>
<path d="M97.9359 27.1571C93.0106 22.4334 86.8258 18.919 79.797 17.0295C72.7681 15.1401 65.6259 15.1904 59.0254 16.7272L69.027 57.5901L97.9359 27.1571Z" fill="#52FF31"/>
</svg>
