<svg width="191" height="74" viewBox="0 0 191 74" fill="none" xmlns="http://www.w3.org/2000/svg">
<path d="M29.4843 0C25.5519 1.1419 21.8691 3.30471 18.7761 6.39012C15.6832 9.47553 13.5733 13.2037 12.386 17.0983L36.6382 24.1615L29.4843 0Z" fill="#52FF31"/>
<path d="M0.702311 17.2344C-0.273222 21.2121 -0.250538 25.4848 0.883803 29.7046C2.01814 33.9243 4.18096 37.6223 6.96388 40.5942L25.2041 23.1254L0.702311 17.2344Z" fill="#52FF31"/>
<path d="M1.23923 50.7705C4.19608 53.6063 7.90915 55.7162 12.1289 56.8505C16.3487 57.9849 20.6365 57.9546 24.5991 57.032L18.5947 32.5L1.23923 50.7705Z" fill="#52FF31"/>
<path d="M30.5581 67.0755C34.4905 65.9336 38.1734 63.7708 41.2663 60.6854C44.3593 57.5924 46.4692 53.8718 47.6565 49.9772L23.4042 42.9141L30.5581 67.0755Z" fill="#52FF31"/>
<path d="M59.3326 49.8403C60.3082 45.8626 60.2855 41.5899 59.1511 37.3701C58.0168 33.1504 55.854 29.4524 53.0711 26.4805L34.8308 43.9493L59.3326 49.8403Z" fill="#52FF31"/>
<path d="M58.7957 16.3065C55.8389 13.4706 52.1258 11.3608 47.906 10.2264C43.6863 9.09208 39.3985 9.12233 35.4359 10.0449L41.4403 34.5769L58.7957 16.3065Z" fill="#52FF31"/>
<path d="M73.52 21.792C74.576 21.624 75.488 21.516 76.256 21.468C77.048 21.396 77.804 21.36 78.524 21.36C80.708 21.36 82.46 21.636 83.78 22.188C85.1 22.716 86.06 23.58 86.66 24.78C87.26 25.956 87.56 27.516 87.56 29.46C87.56 31.404 87.26 32.976 86.66 34.176C86.06 35.352 85.1 36.216 83.78 36.768C82.46 37.296 80.708 37.56 78.524 37.56C77.876 37.56 77.24 37.536 76.616 37.488C76.016 37.44 75.38 37.368 74.708 37.272L75.644 34.752C76.268 34.848 76.832 34.92 77.336 34.968C77.84 35.016 78.32 35.04 78.776 35.04C80.216 35.04 81.356 34.86 82.196 34.5C83.06 34.14 83.684 33.552 84.068 32.736C84.452 31.92 84.644 30.84 84.644 29.496C84.644 28.128 84.452 27.048 84.068 26.256C83.684 25.44 83.06 24.852 82.196 24.492C81.356 24.132 80.216 23.952 78.776 23.952C78.296 23.952 77.792 23.976 77.264 24.024C76.76 24.048 76.184 24.12 75.536 24.24L76.4 23.232V48H73.52V21.792ZM84.536 48L75.536 36.192H78.848L87.92 48H84.536ZM98.396 48.36C95.996 48.36 94.112 47.82 92.744 46.74C91.376 45.636 90.692 44.136 90.692 42.24C90.692 40.248 91.448 38.748 92.96 37.74C94.496 36.732 96.752 36.228 99.728 36.228H102.968V38.568H99.764C95.636 38.568 93.572 39.78 93.572 42.204C93.572 43.356 93.992 44.268 94.832 44.94C95.672 45.612 96.824 45.948 98.288 45.948C99.056 45.948 99.8 45.852 100.52 45.66C101.264 45.468 101.888 45.216 102.392 44.904L101.6 46.56V35.832C101.6 34.608 101.504 33.672 101.312 33.024C101.12 32.376 100.736 31.944 100.16 31.728C99.608 31.488 98.792 31.368 97.712 31.368C97.016 31.368 96.344 31.404 95.696 31.476C95.048 31.548 94.4 31.668 93.752 31.836C93.104 31.98 92.42 32.184 91.7 32.448V29.964C92.54 29.628 93.5 29.376 94.58 29.208C95.684 29.016 96.824 28.92 98 28.92C99.632 28.92 100.916 29.124 101.852 29.532C102.788 29.94 103.448 30.648 103.832 31.656C104.216 32.64 104.408 34.008 104.408 35.76V47.208C103.664 47.568 102.74 47.844 101.636 48.036C100.532 48.252 99.452 48.36 98.396 48.36ZM116.504 48.36C114.632 48.36 113.12 48.036 111.968 47.388C110.84 46.716 110.012 45.636 109.484 44.148C108.98 42.66 108.728 40.704 108.728 38.28C108.728 35.976 108.944 34.14 109.376 32.772C109.808 31.404 110.516 30.42 111.5 29.82C112.484 29.22 113.792 28.92 115.424 28.92C116.456 28.92 117.44 29.028 118.376 29.244C119.336 29.46 120.212 29.796 121.004 30.252L120.104 32.628C119.36 32.22 118.616 31.92 117.872 31.728C117.152 31.536 116.408 31.44 115.64 31.44C114.608 31.44 113.792 31.656 113.192 32.088C112.592 32.496 112.16 33.204 111.896 34.212C111.656 35.196 111.536 36.564 111.536 38.316C111.536 40.188 111.68 41.676 111.968 42.78C112.256 43.884 112.736 44.676 113.408 45.156C114.104 45.612 115.04 45.84 116.216 45.84C117.776 45.84 119.12 45.492 120.248 44.796L119.6 46.344V21.72H122.408V47.208C121.664 47.544 120.788 47.82 119.78 48.036C118.772 48.252 117.68 48.36 116.504 48.36ZM134.36 48V31.8H127.88V29.28H137.24V48H134.36ZM135.224 25.896C134.456 25.896 133.832 25.68 133.352 25.248C132.896 24.792 132.668 24.192 132.668 23.448C132.668 22.68 132.896 22.08 133.352 21.648C133.832 21.216 134.456 21 135.224 21C135.992 21 136.604 21.216 137.06 21.648C137.54 22.08 137.78 22.68 137.78 23.448C137.78 24.192 137.54 24.792 137.06 25.248C136.604 25.68 135.992 25.896 135.224 25.896ZM153.296 48.36C150.488 48.36 148.4 47.628 147.032 46.164C145.664 44.676 144.98 42.408 144.98 39.36V37.92C144.98 34.824 145.544 32.556 146.672 31.116C147.824 29.652 149.6 28.92 152 28.92C154.424 28.92 156.2 29.652 157.328 31.116C158.456 32.556 159.02 34.824 159.02 37.92V39.864H146.384V37.524H156.86L156.212 38.352V38.028C156.212 35.676 155.876 33.984 155.204 32.952C154.556 31.896 153.488 31.368 152 31.368C150.512 31.368 149.432 31.896 148.76 32.952C148.112 33.984 147.788 35.676 147.788 38.028V39.252C147.788 40.908 147.968 42.228 148.328 43.212C148.688 44.172 149.288 44.868 150.128 45.3C150.968 45.708 152.096 45.912 153.512 45.912C154.208 45.912 154.916 45.864 155.636 45.768C156.38 45.672 157.172 45.516 158.012 45.3V47.784C157.292 47.952 156.512 48.084 155.672 48.18C154.856 48.3 154.064 48.36 153.296 48.36ZM163.268 30.072C164.18 29.664 165.152 29.376 166.184 29.208C167.216 29.016 168.38 28.92 169.676 28.92C171.5 28.92 172.916 29.124 173.924 29.532C174.956 29.94 175.676 30.648 176.084 31.656C176.516 32.64 176.732 34.008 176.732 35.76V48H173.924V35.904C173.924 34.728 173.804 33.816 173.564 33.168C173.324 32.52 172.892 32.076 172.268 31.836C171.668 31.572 170.816 31.44 169.712 31.44C169.16 31.44 168.644 31.476 168.164 31.548C167.684 31.62 167.204 31.74 166.724 31.908C166.244 32.052 165.716 32.28 165.14 32.592L166.076 30.792V48H163.268V30.072Z" fill="#52FF31"/>
</svg>
